<?xml version="1.0" encoding="utf-8"?>
<!-- Generator: Adobe Illustrator 25.4.1, SVG Export Plug-In . SVG Version: 6.00 Build 0)  -->
<svg version="1.1" id="Layer_1" xmlns="http://www.w3.org/2000/svg" xmlns:xlink="http://www.w3.org/1999/xlink" x="0px" y="0px"
	 viewBox="0 0 250 110" style="enable-background:new 0 0 250 110;" xml:space="preserve">
<style type="text/css">
	.st0{fill:#0A79A8;}
	.st1{fill:#353334;}
	.st2{fill:#FDFEFE;}
	.st3{fill:#FFFFFF;}
</style>
<g>
	<path class="st0" d="M51.5,27.1c1.5,0,2.8,0,4.1,0c3.9,0,7.8,0,11.7-0.1c0.5,0,0.9,0.2,1.2,0.6c3.9,5.4,7.8,10.9,11.7,16.3
		c0.4,0.6,0.6,0.5,0.9,0c6-10.1,12.1-20.2,18.2-30.4c0.3-0.5,0.2-0.7-0.2-0.9c-1-0.5-1.9-1.1-2.9-1.8c2-0.7,3.8-1.4,5.6-2
		c3.4-1.2,6.8-2.5,10.3-3.7c0.4-0.2,0.6-0.1,0.7,0.4c0.8,4.6,1.7,9.1,2.5,13.7c0.1,0.4,0.2,0.9,0.3,1.5c-1-0.5-1.9-0.9-2.8-1.4
		c-1.2-0.6-1.2-0.6-1.9,0.6c-7,11.8-14,23.5-21.1,35.3c-0.4,0.7-0.4,1.2,0.1,1.8c7.8,10.3,15.5,20.6,23.3,30.9
		c0.1,0.2,0.3,0.4,0.4,0.6c-0.2,0.2-0.4,0.1-0.6,0.1c-5.4,0.1-10.8,0.1-16.2,0.2c-0.5,0-0.9-0.1-1.2-0.6
		c-4.4-6.2-8.9-12.3-13.3-18.5c-0.2-0.3-0.4-0.6-0.7-0.9c-0.3,0.1-0.4,0.4-0.5,0.6c-3.7,6.2-7.4,12.4-11.1,18.6
		c-0.3,0.4-0.5,0.6-1.1,0.6c-4.9,0-9.7,0-14.6,0c-0.2,0-0.4,0-0.8,0c0.5-0.8,0.9-1.6,1.4-2.3c5.8-9.5,11.7-19.1,17.5-28.6
		c0.4-0.6,0.4-1,0-1.5C65.6,46.7,58.8,37.3,52,27.9C51.9,27.7,51.8,27.5,51.5,27.1z"/>
	<path class="st0" d="M10.9,56.1c0.1-9.4,0.2-18.8,0.2-28.2c0-1.6,0-1.6,1.6-1.6c2.4,0,4.8,0.1,7.2,0.1c5.9,0.1,11.7,0.1,17.6,0.2
		c0.5,0,0.9,0.2,1.2,0.6c2.9,4.1,5.9,8.2,8.8,12.3c0.9,1.3,1.8,2.5,2.7,3.8c0.2,0.3,0.3,0.6,0.1,1c-2.3,3.8-4.7,7.5-7,11.3
		c-0.4,0.6-0.5,0.5-0.8,0c-3.7-5.1-7.3-10.2-11-15.2c-0.3-0.5-0.7-0.7-1.2-0.6c-1.8,0-3.6,0-5.4,0c-0.6,0-0.7,0.2-0.7,0.8
		c-0.1,13.2-0.2,26.5-0.3,39.7c0,1.7-0.1,3.3,0,5c0,0.5-0.1,0.6-0.6,0.6c-4,0-7.9,0-11.9,0c-0.6,0-0.7-0.2-0.7-0.7
		c0-9.7,0-19.3,0-29C10.8,56.1,10.8,56.1,10.9,56.1z"/>
	<path class="st0" d="M229.6,45.1c1.7-5.8,3.3-11.6,5-17.5c0.2-0.6,0.4-0.7,1-0.7c1,0,2.1,0,3.1,0c0.5,0,0.7,0.1,0.7,0.7
		c0,2.6,0,5.3,0,7.9c0,7.5,0,15.1,0,22.6c0,0.6-0.1,0.8-0.8,0.8c-1.1-0.1-2.2,0-3.3,0c-0.4,0-0.6-0.1-0.6-0.5c0-5.3,0-10.6,0-15.8
		c0-0.6,0.1-1.2,0-1.8c-0.7,2.6-1.3,5.2-2,7.9c-0.6,2.2-1.1,4.5-1.7,6.7c-0.1,0.4-0.3,0.6-0.8,0.6c-1.8,0-1.8,0-2.3-1.7
		c-1.1-4.1-2.1-8.3-3.2-12.4c-0.1-0.2-0.1-0.4-0.3-0.8c-0.3,0.5,0,0.9,0,1.3c0,5.4,0,10.8,0,16.1c0,0.4-0.1,0.6-0.6,0.5
		c-1.1,0-2.3,0-3.4,0c-0.6,0-0.7-0.2-0.7-0.7c0-4.3,0-8.5,0-12.8c0-5.9,0-11.9,0-17.8c0-0.6,0.1-0.8,0.8-0.8c1.1,0.1,2.1,0,3.2,0
		c0.4,0,0.6,0.1,0.7,0.5c1.6,5.7,3.3,11.3,4.9,17C229.5,44.6,229.5,44.8,229.6,45.1z"/>
	<path class="st0" d="M185.7,39.7c0,0.6,0.1,1.2,0.1,1.8c0,5.6,0,11.1,0,16.7c0,0.6-0.2,0.8-0.8,0.8c-1.1-0.1-2.2,0-3.2,0
		c-0.5,0-0.7-0.2-0.7-0.7c0-4,0-8,0-12.1c0-6.2,0-12.3,0-18.5c0-0.6,0.1-0.8,0.8-0.8c0.9,0.1,1.8,0,2.7,0c0.5,0,0.8,0.1,1,0.7
		c2.2,5.8,4.5,11.7,6.8,17.5c0.1,0.3,0.2,0.5,0.4,0.8c-0.2-1.6-0.1-3.2-0.1-4.8c0-4.5,0-9,0-13.4c0-0.5,0.1-0.7,0.6-0.7
		c1.1,0,2.3,0,3.4,0c0.5,0,0.7,0.2,0.7,0.7c0,5.2,0,10.5,0,15.7c0,5,0,9.9,0,14.9c0,0.7-0.2,0.8-0.8,0.8c-0.9-0.1-1.8,0-2.7,0
		c-0.5,0-0.7-0.1-0.9-0.6c-2-5.3-4-10.5-6-15.8c-0.4-1-0.7-1.9-1.1-2.9C185.8,39.7,185.8,39.7,185.7,39.7z"/>
	<path class="st0" d="M217.3,58.9c-1.5,0-2.9,0-4.3,0c-0.4,0-0.5-0.1-0.5-0.5c-0.2-1.6-0.5-3.3-0.8-4.9c-0.1-0.5-0.2-0.7-0.7-0.7
		c-1.6,0-3.2,0-4.8,0c-0.5,0-0.6,0.1-0.7,0.6c-0.2,1.6-0.5,3.2-0.7,4.8c-0.1,0.4-0.2,0.6-0.6,0.6c-1.2,0-2.5,0-3.7,0
		c-0.4,0-0.5-0.1-0.4-0.5c1.5-7.8,3-15.6,4.5-23.4c0.5-2.5,1-5,1.4-7.5c0.1-0.5,0.2-0.7,0.8-0.7c1.3,0.1,2.6,0,3.8,0
		c0.4,0,0.6,0,0.7,0.5C213.3,37.9,215.3,48.4,217.3,58.9z M208.6,34.6c-0.1,0.3-0.1,0.4-0.2,0.6c-0.7,4.4-1.4,8.8-2.2,13.2
		c-0.1,0.4,0.2,0.4,0.5,0.4c1.1,0,2.3,0,3.4,0c0.6,0,0.8-0.1,0.7-0.7C210.1,43.7,209.4,39.2,208.6,34.6z"/>
	<path class="st0" d="M128.3,49.4c0.4-2.5,0.8-5,1.2-7.5c0.8-4.8,1.6-9.7,2.4-14.5c0.1-0.4,0.2-0.6,0.6-0.6c1.3,0,2.5,0,3.8,0
		c0.4,0,0.5,0,0.4,0.5c-2,10.3-4,20.7-5.9,31c-0.1,0.5-0.3,0.5-0.7,0.5c-1.2,0-2.4,0-3.6,0c-0.5,0-0.6-0.2-0.7-0.6
		c-0.9-4.8-1.8-9.6-2.7-14.4c-1-5.4-2.1-10.9-3.1-16.3c-0.1-0.6-0.1-0.9,0.7-0.8c1.2,0.1,2.3,0,3.5,0c0.4,0,0.6,0.1,0.6,0.5
		c1.1,7,2.3,14.1,3.4,21.1C128.2,48.9,128.2,49.2,128.3,49.4C128.3,49.5,128.3,49.5,128.3,49.4z"/>
	<path class="st0" d="M148.3,42.9c0-5.1,0-10.2,0-15.2c0-0.6,0.1-0.8,0.7-0.7c3.9,0,7.8,0,11.7,0c0.5,0,0.8,0.1,0.7,0.7
		c-0.1,1-0.1,1.9,0,2.9c0,0.6-0.2,0.7-0.7,0.7c-2.3,0-4.6,0-6.9,0c-0.6,0-0.7,0.2-0.7,0.8c0,2.6,0,5.3,0,7.9c0,0.6,0.2,0.7,0.7,0.7
		c2,0,3.9,0,5.9,0c0.5,0,0.6,0.1,0.6,0.6c0,1,0,1.9,0,2.9c0,0.5-0.2,0.6-0.6,0.6c-2,0-3.9,0-5.9,0c-0.6,0-0.7,0.2-0.7,0.7
		c0,2.9,0,5.8,0,8.7c0,0.6,0.2,0.7,0.8,0.7c2.3,0,4.7,0,7,0c0.5,0,0.8,0.1,0.7,0.7c-0.1,1,0,2,0,2.9c0,0.4-0.1,0.6-0.6,0.6
		c-4.1,0-8.1,0-12.2,0c-0.6,0-0.5-0.4-0.5-0.7C148.3,53.1,148.3,48,148.3,42.9z"/>
	<path class="st0" d="M168.5,45c0-4.4,0-8.8,0-13.2c0-0.6-0.1-0.7-0.7-0.7c-1.3,0-2.6,0-3.9,0c-0.5,0-0.7-0.2-0.7-0.7c0-1,0-2,0-3
		c0-0.4,0.1-0.6,0.6-0.6c4.8,0,9.5,0,14.3,0c0.4,0,0.6,0.1,0.5,0.6c0,1,0,2.1,0,3.1c0,0.5-0.1,0.6-0.6,0.6c-1.3,0-2.6,0-3.8,0
		c-0.7,0-0.9,0.1-0.9,0.8c0,7.2,0,14.3,0,21.5c0,1.6,0,3.2,0,4.8c0,0.5-0.1,0.6-0.6,0.6c-1.1,0-2.3,0-3.4,0c-0.6,0-0.8-0.1-0.8-0.8
		C168.6,53.8,168.5,49.4,168.5,45z"/>
	<path class="st1" d="M170.4,76.5c-0.1,0.2-0.1,0.5-0.2,0.7c-0.7,3-1.5,5.9-2.2,8.9c-0.2,0.8-0.8,0.3-1.2,0.4
		c-0.5,0.1-0.6-0.2-0.7-0.6c-0.8-3-1.5-6-2.3-9c0,0,0-0.1-0.1-0.2c0,0.5,0,1,0,1.5c0,3.2,0,6.4,0,9.6c0,0.5-0.2,0.7-0.7,0.6
		c-0.8-0.1-1.8,0.3-2.2-0.2c-0.4-0.4-0.1-1.4-0.1-2.2c0-6,0-11.9,0-17.9c0-0.6,0.2-0.8,0.8-0.8c0.7,0.1,1.6-0.3,2.1,0.1
		c0.4,0.4,0.5,1.3,0.7,2c0.9,3.2,1.8,6.4,2.8,9.7c1.1-3.8,2.2-7.5,3.2-11.2c0.1-0.5,0.3-0.7,0.8-0.6c0.6,0,1.2,0,1.8,0
		c0.4,0,0.5,0.1,0.5,0.5c0,1.1,0,2.1,0,3.2c0,5.5,0,11,0,16.5c0,0.7-0.2,0.9-0.8,0.8c-0.6-0.1-1.2,0-1.7,0c-0.3,0-0.5-0.1-0.5-0.4
		c0-3.5,0-6.9,0-10.4"/>
	<path class="st1" d="M155.1,76.5c-0.1,0.2-0.1,0.5-0.2,0.7c-0.7,3-1.5,5.9-2.2,8.9c-0.2,0.8-0.8,0.3-1.2,0.4
		c-0.5,0.1-0.6-0.2-0.7-0.6c-0.8-3-1.5-6-2.3-9c0,0,0-0.1-0.1-0.2c0,0.5,0,1,0,1.5c0,3.2,0,6.4,0,9.6c0,0.5-0.2,0.7-0.7,0.6
		c-0.8-0.1-1.8,0.3-2.2-0.2c-0.4-0.4-0.1-1.4-0.1-2.2c0-6,0-11.9,0-17.9c0-0.6,0.2-0.8,0.8-0.8c0.7,0.1,1.6-0.3,2.1,0.1
		c0.4,0.4,0.5,1.3,0.7,2c0.9,3.2,1.8,6.4,2.8,9.7c1.1-3.8,2.2-7.5,3.2-11.2c0.1-0.5,0.3-0.7,0.8-0.6c0.6,0,1.2,0,1.8,0
		c0.4,0,0.5,0.1,0.5,0.5c0,1.1,0,2.1,0,3.2c0,5.5,0,11,0,16.5c0,0.7-0.2,0.9-0.8,0.8c-0.6-0.1-1.2,0-1.7,0c-0.3,0-0.5-0.1-0.5-0.4
		c0-3.5,0-6.9,0-10.4"/>
	<path class="st0" d="M139.6,42.9c0-5.1,0-10.2,0-15.2c0-0.6,0.2-0.8,0.8-0.8c1.1,0.1,2.2,0.1,3.2,0c0.6,0,0.8,0.1,0.8,0.8
		c0,7.3,0,14.6,0,21.9c0,2.9,0,5.8,0,8.7c0,0.6-0.2,0.7-0.7,0.7c-1.1,0-2.2-0.1-3.2,0c-0.7,0-0.9-0.1-0.9-0.8
		C139.6,53,139.6,48,139.6,42.9z"/>
	<path class="st1" d="M210.4,78c0-2.8,0-5.6,0-8.4c0-1.5,0.5-2,2-2c2.1,0,4.3,0,6.4,0c1.4,0,2,0.6,2,2c0,5.7,0,11.4,0,17
		c0,1.4-0.6,1.9-1.9,1.9c-2.2,0-4.4,0-6.6,0c-1.3,0-1.9-0.6-1.9-1.9C210.4,83.8,210.4,80.9,210.4,78z M217.6,78.1c0-2.4,0-4.8,0-7.2
		c0-0.5-0.1-0.6-0.6-0.6c-1,0-2,0-3,0c-0.4,0-0.5,0-0.5,0.5c0,4.9,0,9.7,0,14.6c0,0.4,0.1,0.5,0.5,0.5c1,0,2.1,0,3.1,0
		c0.5,0,0.6-0.1,0.6-0.6C217.6,82.8,217.6,80.5,217.6,78.1z"/>
	<path class="st1" d="M143,77.6c0,3,0,6,0,9.1c0,1.3-0.6,1.9-1.8,1.9c-2.3,0-4.6,0-6.9,0c-1.3,0-1.8-0.6-1.9-1.9
		c0-6.2,0-12.3,0-18.5c0-0.5,0.1-0.7,0.6-0.6c0.6,0,1.3,0.1,1.9,0c0.6-0.1,0.7,0.2,0.7,0.7c0,5.6,0,11.1,0,16.7c0,0.7,0.1,1,0.9,0.9
		c0.9-0.1,1.8-0.1,2.7,0c0.5,0,0.7-0.2,0.7-0.7c0-5.6,0-11.2,0-16.8c0-0.7,0.2-0.9,0.8-0.8c0.8,0.1,1.8-0.3,2.2,0.2
		c0.4,0.4,0.1,1.4,0.1,2.2C143,72.4,143,75,143,77.6z"/>
	<path class="st1" d="M125,67.5c1,0,2.1,0,3.1,0c1.4,0,1.9,0.5,1.9,1.9c0,1.4,0,2.8,0,4.2c0,0.4-0.1,0.5-0.5,0.5
		c-0.9-0.1-2,0.4-2.5-0.2c-0.4-0.4-0.1-1.6-0.1-2.4c0-1.4,0-1.4-1.4-1.4c-0.8,0-1.9-0.3-2.3,0.1c-0.4,0.4,0,1.5-0.1,2.3
		c-0.1,0.9,0.2,1.6,0.9,2.2c1.7,1.6,3.4,3.2,5.1,4.8c0.6,0.6,0.9,1.3,0.9,2.1c0,1.7,0,3.3,0,5c0,1.1-0.5,1.7-1.6,1.7
		c-2.3,0-4.6,0-6.9,0c-1.1,0-1.6-0.6-1.6-1.7c0-1.5,0-3,0-4.5c0-0.5,0.1-0.6,0.6-0.6c0.8,0.1,1.9-0.4,2.5,0.2
		c0.4,0.4,0.1,1.5,0.1,2.3c0,1.6,0,1.6,1.6,1.6c0.7,0,1.7,0.3,2.1-0.1c0.4-0.4,0-1.3,0.1-2c0.2-1.4-0.3-2.3-1.4-3.2
		c-1.6-1.4-3.1-2.9-4.7-4.4c-0.7-0.6-1-1.3-0.9-2.2c0-1.5,0-3,0-4.5c0-1.2,0.5-1.8,1.8-1.8C122.8,67.5,123.9,67.5,125,67.5z"/>
	<path class="st1" d="M201.6,85.8c2,0,3.9,0,5.7,0c0.5,0,0.8,0.1,0.7,0.7c-0.1,0.6,0.2,1.5-0.1,1.9c-0.4,0.5-1.3,0.1-1.9,0.1
		c-2.5,0-5,0-7.5,0c-0.5,0-0.6-0.1-0.6-0.6c0-0.9,0.2-1.7,0.6-2.5c2-3.4,3.9-6.9,5.9-10.3c0.4-0.8,0.7-1.5,0.6-2.4
		c-0.1-0.8,0.4-1.9-0.2-2.4c-0.5-0.4-1.5-0.1-2.3-0.1c-1.3,0-1.3,0-1.3,1.3c0,0.7,0,1.4,0,2.1c0,0.4,0,0.6-0.5,0.5
		c-0.7,0-1.5,0-2.2,0c-0.4,0-0.5-0.1-0.5-0.5c0-1.5,0-3,0-4.5c0-1.1,0.6-1.7,1.7-1.7c2.2,0,4.4,0,6.6,0c1.1,0,1.7,0.6,1.7,1.7
		c0,1.4,0,2.9,0,4.3c0,0.9-0.4,1.6-0.8,2.3c-1.8,3-3.5,6.1-5.2,9.2C201.9,85.3,201.8,85.5,201.6,85.8z"/>
	<path class="st1" d="M226.7,85.8c2,0,3.9,0,5.8,0c0.5,0,0.7,0.1,0.6,0.6c-0.1,0.7,0.2,1.6-0.1,2c-0.4,0.4-1.3,0.1-1.9,0.1
		c-2.5,0-5,0-7.5,0c-0.5,0-0.6-0.2-0.6-0.6c0-0.9,0.2-1.7,0.6-2.5c2-3.5,4-7,6-10.5c0.3-0.6,0.5-1.1,0.5-1.8c0-0.8,0-1.6,0-2.3
		c0-0.4,0-0.5-0.5-0.5c-1,0-1.9,0-2.9,0c-0.4,0-0.5,0.1-0.5,0.5c0,1,0,2,0,2.9c0,0.4-0.1,0.5-0.5,0.5c-0.7,0-1.4,0-2.1,0
		c-0.4,0-0.5-0.1-0.5-0.5c0-1.5,0-2.9,0-4.4c0-1.2,0.6-1.8,1.8-1.8c2.1,0,4.3,0,6.4,0c1.3,0,1.8,0.6,1.8,1.9c0,1.3,0,2.6,0,3.9
		c0,0.9-0.3,1.8-0.8,2.6c-1.8,3-3.5,6.1-5.2,9.2C226.9,85.3,226.8,85.5,226.7,85.8z"/>
	<path class="st1" d="M184.4,79.4c0-2.8,0-5.6,0-8.4c0-0.5-0.1-0.7-0.7-0.7c-0.8,0-1.5,0-2.3,0c-0.4,0-0.6-0.1-0.6-0.5
		c0.1-0.7-0.3-1.7,0.2-2.1c0.4-0.3,1.3-0.1,2-0.1c2.4,0,4.9,0,7.3,0c0.5,0,0.7,0.1,0.7,0.7c0,0.5,0,1.1,0,1.6c0,0.4-0.1,0.5-0.5,0.5
		c-0.8,0-1.5,0-2.3,0c-0.6,0-0.7,0.1-0.7,0.7c0,4.6,0,9.1,0,13.7c0,1.1,0,2.3,0,3.4c0,0.4-0.1,0.6-0.5,0.5c-0.7,0-1.3,0-2,0
		c-0.5,0-0.7-0.1-0.7-0.7C184.4,85,184.4,82.2,184.4,79.4z"/>
	<path class="st1" d="M176,78c0-3.3,0-6.5,0-9.8c0-0.6,0.1-0.8,0.7-0.7c0.7,0.1,1.4,0,2,0c0.3,0,0.5,0.1,0.4,0.4c0,0.1,0,0.2,0,0.3
		c0,6.5,0,13,0,19.5c0,0.6-0.2,0.8-0.7,0.7c-0.8-0.1-1.8,0.3-2.3-0.1c-0.5-0.4-0.1-1.5-0.1-2.3C176,83.4,176,80.7,176,78z"/>
	<path class="st1" d="M239.1,78.1c0,3.2,0,6.5,0,9.7c0,0.6-0.1,0.8-0.7,0.7c-0.8-0.1-1.8,0.3-2.3-0.1c-0.5-0.4-0.2-1.5-0.2-2.3
		c0-3.9,0-7.8,0-11.8c0-0.5,0-0.9-0.7-0.8c-0.5,0.1-0.6-0.2-0.5-0.6c0.5-1.7,1-3.4,1.5-5.1c0.1-0.3,0.2-0.4,0.5-0.4c0,0,0.1,0,0.1,0
		c0.7,0,1.6-0.2,2.1,0.1c0.5,0.4,0.1,1.3,0.1,2C239.1,72.5,239.1,75.3,239.1,78.1z"/>
	<path class="st0" d="M40.2,92.1c-0.6,0-0.9-0.6-0.5-1.2c1-1.7,2-3.5,3.1-5.2c3.9-6.7,7.8-13.4,11.7-20c0.2-0.3,0.3-0.6,0.7-0.5
		c0.3,0.1,0.5,0.2,0.6,0.5c0.1,0.3-0.1,0.6-0.3,0.8c-1.3,2.2-2.6,4.4-3.9,6.6c-3.6,6.1-7.1,12.2-10.7,18.3
		C40.8,91.7,40.7,92.1,40.2,92.1z"/>
	<path class="st0" d="M43.4,71.3c-0.1,0.2-0.2,0.4-0.3,0.6c-3.8,6.6-7.7,13.1-11.5,19.7c-1.1,1.8-2.1,3.6-3.1,5.4
		c-0.2,0.4-0.4,0.7-0.9,0.4c-0.6-0.3-0.5-0.7-0.2-1.2c1-1.7,2-3.4,3-5.1c3.9-6.7,7.8-13.4,11.7-20c0.4-0.6,0.8-0.7,1.2-0.2
		C43.3,71,43.3,71.1,43.4,71.3z"/>
	<path class="st0" d="M55,49.8c0.9,1.1,0.9,1.1,0.2,2.2c-3.2,5.6-6.5,11.1-9.7,16.7c-0.2,0.4-0.5,0.8-1,0.5
		c-0.6-0.3-0.4-0.7-0.2-1.1c3.5-6,7-12,10.5-18C54.8,50,54.9,49.9,55,49.8z"/>
	<path class="st0" d="M47.7,50.3c1.5-1.4,2.9-2.8,4.3-4.2c0,0,0.1,0.1,0.1,0.1c-0.5,1.9-1.1,3.7-1.6,5.6c-0.1,0-0.1,0-0.2,0
		c-0.5-0.7-0.5-0.7-1,0.1c-2.3,3.8-4.6,7.6-6.9,11.4c-0.1,0.1-0.1,0.2-0.2,0.3c-0.9-1-0.9-1-0.3-2c1.8-3,3.7-6,5.4-9.1
		c0.3-0.5,0.6-0.9,0.9-1.3C48.8,50.4,48.8,50.4,47.7,50.3z"/>
	<path class="st0" d="M43.7,76.1c-0.1,0.2-0.2,0.3-0.3,0.5c-3.2,5.5-6.4,10.9-9.6,16.4c-0.2,0.4-0.5,0.6-0.9,0.4
		c-0.4-0.2-0.5-0.6-0.2-1c3.2-5.5,6.4-11,9.6-16.5c0.2-0.3,0.3-0.6,0.8-0.5C43.4,75.5,43.7,75.7,43.7,76.1z"/>
	<path class="st0" d="M23.4,94.7c-0.7,0-0.9-0.5-0.5-1.1c1.8-3.1,3.6-6.1,5.4-9.2c1-1.6,1.9-3.2,2.8-4.9c0.2-0.4,0.5-0.7,1-0.4
		c0.5,0.3,0.4,0.7,0.2,1.1c-2.7,4.6-5.5,9.3-8.2,14C23.9,94.5,23.8,94.8,23.4,94.7z"/>
	<path class="st0" d="M47.8,71.7c0.9,1.1,0.9,1.1,0.3,2c-2.6,4.4-5.1,8.8-7.7,13.1c-0.4,0.7-0.8,0.8-1.2,0.3
		c-0.3-0.3-0.1-0.6,0.1-0.9c1.4-2.3,2.7-4.7,4.1-7c1.3-2.2,2.6-4.5,3.9-6.7C47.4,72.2,47.6,72,47.8,71.7z"/>
	<path class="st0" d="M27.5,92.8c-0.6,0-0.8-0.5-0.5-1.1c2-3.4,4-6.9,6-10.3c0.7-1.3,1.5-2.5,2.2-3.8c0.2-0.4,0.5-0.7,0.9-0.4
		c0.4,0.3,0.4,0.6,0.2,1c-2.7,4.7-5.5,9.4-8.2,14C28,92.5,27.9,92.8,27.5,92.8z"/>
	<path class="st0" d="M53.4,47.6c0.9,1,0.9,1,0.3,2c-2.5,4.3-5,8.6-7.6,12.9c-0.2,0.4-0.4,0.9-1,0.5c-0.4-0.3-0.4-0.6-0.2-1
		c1.8-3.1,3.6-6.1,5.4-9.2C51.3,51,52.3,49.3,53.4,47.6z"/>
	<path class="st0" d="M56.7,64.6c-0.9-1.1-0.9-1.1-0.3-2.2c1-1.7,2-3.5,3-5.2c0.1-0.2,0.1-0.7,0.5-0.5c0.4,0.1,0.7,1,0.5,1.3
		C59.2,60.3,58,62.4,56.7,64.6z"/>
	<path class="st0" d="M54.7,62.3C54.7,62.2,54.7,62.2,54.7,62.3c-0.8-0.9-0.2-1.6,0.2-2.3c1.1-1.8,2.1-3.7,3.2-5.5
		c1,0.9,1,0.9,0.4,2c-1.1,1.8-2.1,3.6-3.2,5.4c-0.1,0.2-0.2,0.5-0.5,0.6c0,0,0,0,0,0C54.8,62.3,54.9,62.2,54.7,62.3
		C54.7,62.2,54.7,62.3,54.7,62.3z"/>
	<path class="st0" d="M56.6,52.2c0.3,0.1,0.8,1.1,0.7,1.3c-0.8,1.4-1.6,2.8-2.4,4.2C54.6,58,54.4,58,54,57.9
		c-0.4-0.2-0.5-0.5-0.3-0.9c0.9-1.5,1.8-3.1,2.7-4.6C56.5,52.3,56.6,52.2,56.6,52.2z"/>
	<path class="st0" d="M30.6,103.3c-0.9-1-1-1-0.3-2c0.5-0.9,1.1-1.8,1.6-2.7c0.3-0.5,0.6-0.6,1-0.3c0.5,0.3,0.4,0.6,0.1,1
		C32.2,100.5,31.4,101.9,30.6,103.3z"/>
	<path class="st0" d="M38.1,95.9c-0.5,0.3-0.3,0.9-0.8,1.3c0-0.5-0.3-0.8-0.8-0.7c-0.2,0-0.2,0-0.2-0.1c0-0.1,0-0.2,0.1-0.3
		c0.1-0.1,0.2-0.1,0.3,0c0.2,0.1,0.4,0.3,0.6,0.4c0.2,0.1,0.3,0,0.4-0.1c0.1-0.2-0.1-0.2-0.2-0.3c-0.4-0.2-0.7-0.4-0.6-0.8
		c0.1-0.5,0.5-0.6,1-0.4c0.2,0.1,0.3,0.4,0.6,0.2c0.1-0.1,0.2-0.2,0.1-0.3c-0.2-0.2-0.4-0.3-0.6-0.4c-0.1,0-0.2,0.3-0.3,0
		c0-0.1,0-0.3,0.1-0.3c0.1-0.2,0.3,0,0.4,0.1c0.3,0.1,0.6,0.5,1.1,0.2C38.8,95,38.2,95.3,38.1,95.9c-0.2-0.1,0-0.3,0-0.5
		c-0.1-0.3-0.3-0.4-0.6-0.5c-0.2,0-0.4,0.1-0.4,0.3c0,0.3,0.2,0.4,0.5,0.6C37.7,96,37.9,95.7,38.1,95.9z"/>
	<path class="st0" d="M38.7,69.8c-0.5,0.3-0.3,0.9-0.8,1.3c0-0.5-0.3-0.8-0.8-0.7c-0.2,0-0.2,0-0.2-0.1c0-0.1,0-0.2,0.1-0.3
		c0.1-0.1,0.2-0.1,0.3,0c0.2,0.1,0.4,0.3,0.6,0.4c0.2,0.1,0.3,0,0.4-0.1c0.1-0.2-0.1-0.2-0.2-0.3c-0.4-0.2-0.7-0.4-0.6-0.8
		c0.1-0.5,0.5-0.6,1-0.4c0.2,0.1,0.3,0.4,0.6,0.2c0.1-0.1,0.2-0.2,0.1-0.3c-0.2-0.2-0.4-0.3-0.6-0.4c-0.1,0-0.2,0.3-0.3,0
		c0-0.1,0-0.3,0.1-0.3c0.1-0.2,0.3,0,0.4,0.1c0.3,0.1,0.6,0.6,1.1,0.1C39.5,68.8,38.8,69.2,38.7,69.8c-0.2-0.1,0-0.3,0-0.5
		c-0.1-0.3-0.3-0.4-0.6-0.5c-0.2,0-0.4,0.1-0.4,0.3c0,0.3,0.2,0.4,0.5,0.6C38.3,69.9,38.5,69.6,38.7,69.8z"/>
	<path class="st0" d="M35.1,99.4c-0.5-0.8-0.5-0.8,0.4-1.3c0.3-0.2,0.1-0.3,0.1-0.5c-0.1-0.4,0.1-0.7,0.5-0.8
		c0.3-0.1,0.7-0.1,0.7,0.4c-0.1,0-0.2-0.1-0.3-0.1c-0.2-0.1-0.5-0.2-0.6,0.1c-0.1,0.3,0.1,0.5,0.4,0.6c0.6,0.1,0.6-0.3,0.5-0.7
		c0.4-0.1,0.3,0.2,0.3,0.4c0,0.3-0.2,0.5-0.5,0.5c-0.2,0-0.4,0-0.6,0c0.5,1,0.3,1.3-0.8,1.3c0,0,0,0,0,0
		C35.3,99.4,35.1,99.4,35.1,99.4L35.1,99.4z M36,98.9c-0.1-0.3-0.3-0.5-0.6-0.5c-0.2,0-0.4,0.2-0.3,0.4c0.1,0.3,0.3,0.4,0.6,0.5
		C35.9,99.3,36,99.1,36,98.9z"/>
	<path class="st0" d="M37.3,71.2c0.4-0.1,0.3,0.2,0.3,0.4c0,0.3-0.2,0.5-0.5,0.5c-0.2,0-0.4,0-0.6,0c0.5,1,0.3,1.3-0.8,1.3l0,0
		c0.1-0.2-0.1-0.2-0.2-0.2l0,0c-0.5-0.8-0.5-0.8,0.4-1.3c0.3-0.2,0.1-0.3,0.1-0.5c-0.1-0.4,0.1-0.7,0.5-0.8
		C36.9,70.7,37.3,70.7,37.3,71.2c-0.1,0-0.2,0-0.3-0.1c-0.2-0.1-0.5-0.2-0.6,0.1c-0.1,0.3,0.1,0.5,0.4,0.6
		C37.4,72,37.4,71.6,37.3,71.2z M36.6,72.8c0-0.3-0.2-0.5-0.5-0.6c-0.3-0.1-0.5,0.1-0.5,0.3c0,0.3,0.2,0.5,0.5,0.5
		C36.4,73.2,36.5,73.1,36.6,72.8z"/>
	<path class="st0" d="M41.6,65.1c-0.1,0.3-0.4,0.2-0.6,0.2c-0.2,0-0.3,0.1-0.2,0.3c0.2,0.9,0,1-1,1l0,0c0.1-0.2-0.1-0.2-0.2-0.2l0,0
		c-0.4-0.8-0.3-1.1,0.5-1.3c0.1,0,0.2,0.1,0.3,0.1c0.1,0.1,0.1,0.2,0.2,0c-0.1,0-0.1-0.1-0.2-0.1c-0.1-0.1-0.1-0.2-0.2-0.2
		c-0.2-0.3-0.2-0.7,0.1-0.9c0.4-0.3,0.7-0.1,1,0.2c0,0-0.1,0.1-0.1,0.1c-0.3-0.1-0.5-0.3-0.8,0c-0.1,0.1-0.1,0.3,0,0.4
		c0.2,0.3,0.5,0.5,0.8,0.2c0,0,0.1,0,0.1-0.1C41.5,65,41.6,65,41.6,65.1z M40.1,65.5c-0.2,0-0.4,0.1-0.4,0.3c0,0.3,0.3,0.5,0.5,0.5
		c0.3,0.1,0.5-0.1,0.4-0.3C40.7,65.7,40.4,65.6,40.1,65.5z"/>
	<path class="st0" d="M53.6,63.3c-0.1-0.3-0.4-0.7,0-1c0.4-0.4,0.7,0,1.1,0c0,0,0,0,0,0c0,0.1,0,0.2,0.2,0.2c0,0,0,0,0,0
		c0.2,0.7-0.1,1.1-0.8,1.2l0,0c0-0.2-0.2-0.2-0.3-0.2l0,0C53.8,63.3,53.7,63.3,53.6,63.3L53.6,63.3z M54,62.4
		c-0.3,0-0.4,0.1-0.4,0.4c0,0.3,0.3,0.5,0.6,0.5c0.2,0,0.5-0.1,0.4-0.4C54.6,62.5,54.3,62.4,54,62.4z"/>
	<path class="st0" d="M39.9,66.6c0.1,0.1,0.1,0.2,0.2,0.3c0.2,0.3,0.2,0.6-0.1,0.8c-0.2,0.3-0.5,0.2-0.8,0.1
		c-0.3-0.2-0.5-0.4-0.5-0.8c0.1-0.3,0.3-0.5,0.6-0.5c0.1,0,0.3,0.1,0.4,0c0,0,0,0,0,0C39.6,66.7,39.8,66.6,39.9,66.6L39.9,66.6z
		 M39.9,67.3c-0.1-0.3-0.3-0.5-0.7-0.5c-0.2,0-0.4,0.2-0.3,0.4c0.1,0.3,0.3,0.4,0.6,0.5C39.8,67.7,39.9,67.5,39.9,67.3z"/>
	<path class="st0" d="M38.8,92.6c0.4,0.1,0.8,0.3,0.8,0.8c0,0.4-0.3,0.6-0.6,0.6c-0.4-0.1-0.8-0.3-0.8-0.8
		C38.1,92.9,38.4,92.7,38.8,92.6z M39.3,93.4c0-0.3-0.3-0.4-0.5-0.5c-0.3-0.1-0.4,0.1-0.4,0.4c0,0.3,0.3,0.4,0.6,0.5
		C39.2,93.8,39.3,93.7,39.3,93.4z"/>
	<path class="st0" d="M33.4,102c0.1,0.1,0.1,0.2,0.2,0.2c0.3,0.3,0.4,0.6,0.2,0.9c-0.2,0.3-0.5,0.3-0.8,0.2
		c-0.3-0.1-0.6-0.4-0.6-0.8c0.1-0.4,0.3-0.6,0.8-0.5C33.2,102,33.3,102,33.4,102L33.4,102z M33.7,102.7c-0.1-0.3-0.3-0.5-0.7-0.5
		c-0.2,0-0.4,0.2-0.3,0.4c0.1,0.3,0.3,0.4,0.6,0.5C33.5,103.1,33.6,103,33.7,102.7z"/>
	<path class="st0" d="M34,75.8c0.1,0.1,0.1,0.2,0.2,0.2c0.3,0.3,0.4,0.6,0.2,0.9c-0.2,0.3-0.5,0.3-0.8,0.2c-0.3-0.1-0.6-0.4-0.6-0.8
		c0.1-0.4,0.3-0.6,0.8-0.5C33.8,75.9,33.9,75.9,34,75.8C34,75.9,34,75.8,34,75.8z M33.7,76.1c-0.2,0-0.4,0.1-0.4,0.3
		c0,0.3,0.3,0.5,0.5,0.5c0.3,0,0.5-0.1,0.4-0.4C34.2,76.3,34,76.2,33.7,76.1z"/>
	<path class="st0" d="M54.1,63.6c-0.1,0.1-0.1,0.1-0.1,0.2c0.2,0.5,0.1,0.8-0.5,0.9c-0.5,0.1-0.9-0.2-0.9-0.7
		c-0.1-0.5,0.3-0.7,0.8-0.7c0.1,0,0.2,0,0.2-0.1c0,0,0,0,0,0c-0.1,0.2,0.1,0.2,0.2,0.2c0,0,0,0,0,0C53.8,63.6,53.9,63.8,54.1,63.6
		L54.1,63.6z M53.9,64.1c-0.1-0.3-0.3-0.5-0.7-0.5c-0.2,0-0.4,0.2-0.3,0.4c0.1,0.3,0.3,0.5,0.6,0.5C53.7,64.5,53.8,64.4,53.9,64.1z"
		/>
	<path class="st0" d="M34.1,100.6c-0.3-0.9-0.2-1.2,0.9-1.2c0,0,0,0,0,0c-0.1,0.2,0.1,0.2,0.2,0.2c0,0,0,0,0,0
		c0.1,0.4,0.7,0.8-0.2,1.1c0-0.1,0.1-0.1,0.1-0.2c0.2-0.4-0.1-0.6-0.4-0.7c-0.2-0.1-0.4-0.1-0.5,0.2c-0.1,0.4,0.2,0.5,0.4,0.6
		c0.1,0.1,0.2,0.1,0.4,0.1c-0.1,0.2-0.1,0.2-0.8,0.1l0,0C34.4,100.6,34.2,100.6,34.1,100.6L34.1,100.6z"/>
	<path class="st0" d="M35.8,73.4c0.4,0.8,0.4,0.8-0.2,1.1c0-0.1,0.1-0.1,0.1-0.2c0.2-0.4-0.1-0.6-0.4-0.7c-0.2-0.1-0.4-0.1-0.5,0.2
		c-0.1,0.4,0.2,0.5,0.4,0.6c0.1,0.1,0.2,0.1,0.4,0.1c-0.2,0.5-0.5,0-0.8,0.1l0,0c0.1-0.2,0-0.2-0.2-0.2l0,0
		c-0.3-0.9-0.2-1.2,0.9-1.2c0,0,0,0,0,0C35.6,73.5,35.7,73.4,35.8,73.4L35.8,73.4z"/>
	<path class="st0" d="M51.1,69.1c-0.1-0.5-0.3-0.9-0.9-0.7c-0.1,0-0.2,0-0.2-0.1c0-0.1,0-0.3,0.1-0.4c0.1-0.2,0.2,0,0.3,0
		c0.3,0.1,0.6,0.6,1.1,0.2C51.5,68.7,51.3,68.9,51.1,69.1z"/>
	<path class="st0" d="M50.7,69.8c-0.1,0.2-0.3,0.5-0.5,0.8c-0.1-0.5-0.3-1-0.9-0.7c-0.1,0-0.1,0-0.1-0.1c0-0.1,0-0.3,0.1-0.4
		c0.1-0.1,0.2,0,0.3,0C49.9,69.6,50.2,70,50.7,69.8z"/>
	<path class="st0" d="M52.4,67c-0.1,0.2-0.3,0.5-0.5,0.9c0-0.7-0.3-0.9-0.7-0.9c-0.1,0-0.2,0.3-0.3,0c0-0.1,0-0.2,0-0.3
		c0.1-0.2,0.2-0.1,0.3,0C51.6,66.8,51.9,67.3,52.4,67z"/>
	<path class="st0" d="M52.7,66.5c0.1-0.7-0.3-0.8-0.7-0.9c-0.1,0-0.2,0.2-0.3,0c0-0.1,0-0.3,0.1-0.4c0.1-0.1,0.2,0,0.3,0
		c0.3,0.1,0.5,0.6,1,0.3c0.1,0,0.2,0.1,0.1,0.2C53.1,65.9,53,66.1,52.7,66.5z"/>
	<path class="st0" d="M49.5,71.8c-0.4,0.4-0.8,0.2-1.1-0.1c-0.3-0.3-0.3-0.6,0-0.9c0.4-0.3,0.7-0.2,1,0.1c0,0-0.1,0.1-0.1,0.1
		C49,71,48.8,70.8,48.5,71c-0.1,0.1-0.2,0.2-0.1,0.4c0.2,0.3,0.4,0.4,0.7,0.3c0,0,0.1,0,0.1,0C49.4,71.8,49.4,71.8,49.5,71.8z"/>
	<path class="st0" d="M33.7,77.9c-0.2,0.4-0.4,0.6-0.6,0.9c-0.1-0.6-0.3-1-0.9-0.7c-0.1,0-0.1,0-0.1-0.1c0-0.1,0-0.3,0.1-0.4
		c0.1-0.1,0.2-0.1,0.3,0C32.9,77.9,33.2,78.2,33.7,77.9z"/>
	<path class="st0" d="M33.2,104c-0.3,0.4-0.4,0.7-0.6,1c-0.1-0.6-0.3-0.9-0.9-0.7c-0.1,0-0.1,0-0.1,0c0-0.1,0-0.3,0.1-0.4
		c0.1-0.2,0.2-0.1,0.3,0C32.3,104,32.6,104.4,33.2,104z"/>
	<path class="st0" d="M33.4,102c0-0.4-0.5-0.8,0.1-1.1c0,0,0.1,0.1,0.1,0.1c-0.2,0.2-0.2,0.5,0,0.7C33.9,102,33.4,101.8,33.4,102
		C33.4,102,33.4,102,33.4,102z"/>
	<path class="st0" d="M34,75.9c0-0.4-0.5-0.8,0.1-1.1c0,0,0.1,0.1,0.1,0.1c-0.2,0.2-0.2,0.5,0,0.7C34.5,75.9,34,75.7,34,75.9
		C34,75.8,34,75.9,34,75.9z"/>
	<path class="st0" d="M35.1,74.9c0.3,0.6,0.3,0.8-0.5,0.9c0.5-0.2,0.6-0.4,0.4-0.8C35,75,35,75,35.1,74.9z"/>
	<path class="st0" d="M34.4,101c0.3,0.6,0.3,0.8-0.5,0.9c0.5-0.2,0.6-0.4,0.4-0.8C34.4,101.1,34.4,101.1,34.4,101z"/>
	<path class="st0" d="M34.9,74.6c0.1,0.1,0.1,0.2,0.2,0.3c0,0-0.1,0.1-0.1,0.1c-0.2-0.1-0.5-0.3-0.8-0.2c0,0-0.1-0.1-0.1-0.1
		c0.2-0.3,0.5,0,0.7-0.2c0,0,0,0,0,0C34.6,74.7,34.8,74.6,34.9,74.6L34.9,74.6z"/>
	<path class="st0" d="M33.5,100.8c0.2-0.3,0.5,0,0.7-0.2c0,0,0,0,0,0c-0.1,0.2,0.1,0.2,0.2,0.2l0,0c0.1,0.1,0.1,0.2,0.2,0.3
		c0,0-0.1,0.1-0.1,0.1c-0.2-0.1-0.5-0.3-0.8-0.2C33.5,100.9,33.5,100.9,33.5,100.8z"/>
	<path class="st0" d="M49.4,71c0.3,0.3,0.3,0.5,0.1,0.8c0,0-0.1-0.1-0.1-0.1c0.1-0.2,0.1-0.4-0.1-0.6C49.3,71.1,49.4,71,49.4,71z"/>
	<path class="st0" d="M41.6,64.4c0.1,0.2,0.2,0.4,0,0.6c0,0-0.1-0.1-0.1-0.1c0-0.1,0-0.3,0-0.4C41.5,64.5,41.6,64.5,41.6,64.4z"/>
	<path class="st0" d="M41.5,64.3c0,0,0.1,0.1,0.1,0.1c0,0-0.1,0.1-0.1,0.1c0,0-0.1-0.1-0.1-0.1C41.4,64.4,41.4,64.3,41.5,64.3z"/>
	<path class="st2" d="M54.8,62.4c-0.1,0-0.2,0-0.2-0.2C54.9,62.2,54.8,62.3,54.8,62.4z"/>
	<path class="st2" d="M38.1,95.9c-0.2-0.2-0.4,0.1-0.5,0c-0.2-0.1-0.5-0.2-0.5-0.6c0-0.2,0.2-0.3,0.4-0.3c0.3,0,0.5,0.2,0.6,0.5
		C38.1,95.6,37.9,95.8,38.1,95.9C38.1,95.9,38.1,95.9,38.1,95.9z"/>
	<path class="st2" d="M38.7,69.8c-0.2-0.2-0.4,0.1-0.5,0c-0.2-0.1-0.5-0.2-0.5-0.6c0-0.2,0.2-0.3,0.4-0.3c0.3,0,0.5,0.2,0.6,0.5
		C38.7,69.5,38.5,69.7,38.7,69.8C38.7,69.8,38.7,69.8,38.7,69.8z"/>
	<path class="st2" d="M36.7,97.3c0.1,0.4,0.1,0.8-0.5,0.7c-0.3-0.1-0.5-0.3-0.4-0.6c0.1-0.3,0.4-0.3,0.6-0.1
		C36.5,97.2,36.6,97.3,36.7,97.3C36.7,97.3,36.7,97.3,36.7,97.3z"/>
	<path class="st2" d="M36,98.9c0,0.2-0.1,0.4-0.4,0.4c-0.3,0-0.5-0.2-0.6-0.5c0-0.2,0.1-0.4,0.3-0.4C35.6,98.4,35.9,98.5,36,98.9z"
		/>
	<path class="st2" d="M35.2,99.6c-0.1,0-0.3,0-0.2-0.2C35.1,99.4,35.3,99.4,35.2,99.6z"/>
	<path class="st2" d="M37.3,71.2c0.1,0.4,0.1,0.8-0.5,0.7c-0.3-0.1-0.5-0.3-0.4-0.6c0.1-0.3,0.4-0.3,0.6-0.1
		C37.1,71.1,37.2,71.1,37.3,71.2C37.3,71.2,37.3,71.2,37.3,71.2z"/>
	<path class="st2" d="M36.6,72.8c-0.1,0.3-0.2,0.3-0.4,0.3c-0.3-0.1-0.5-0.2-0.5-0.5c0-0.3,0.2-0.4,0.5-0.3
		C36.3,72.4,36.6,72.5,36.6,72.8z"/>
	<path class="st2" d="M35.8,73.4c-0.1,0-0.3,0-0.2-0.2C35.7,73.3,35.9,73.2,35.8,73.4z"/>
	<path class="st2" d="M41.4,64.4c0,0,0.1,0.1,0.1,0.1c0,0.1,0,0.3,0,0.4c0,0-0.1,0-0.1,0.1c-0.4,0.2-0.6,0-0.8-0.2
		c-0.1-0.1-0.1-0.3,0-0.4C40.8,64.1,41.1,64.3,41.4,64.4z"/>
	<path class="st2" d="M40.1,65.5c0.3,0.1,0.5,0.2,0.6,0.5c0,0.3-0.2,0.4-0.4,0.3c-0.3-0.1-0.5-0.2-0.5-0.5
		C39.7,65.6,39.9,65.5,40.1,65.5z"/>
	<path class="st2" d="M40.5,65.4c-0.1,0-0.2-0.1-0.3-0.1c0.1-0.1,0.1-0.1,0.2-0.2C40.5,65.1,40.6,65.2,40.5,65.4
		C40.6,65.3,40.6,65.3,40.5,65.4z"/>
	<path class="st2" d="M39.9,66.6c-0.1,0-0.3,0-0.2-0.2C39.8,66.5,39.9,66.5,39.9,66.6z"/>
	<path class="st2" d="M40.6,65.3c0.1,0,0.1,0.1,0.2,0.1C40.7,65.5,40.6,65.4,40.6,65.3C40.6,65.3,40.6,65.3,40.6,65.3z"/>
	<path class="st2" d="M54,62.4c0.3,0,0.5,0.2,0.6,0.5c0.1,0.3-0.2,0.4-0.4,0.4c-0.3,0-0.5-0.2-0.6-0.5C53.6,62.5,53.8,62.4,54,62.4z
		"/>
	<path class="st2" d="M54.1,63.6c-0.2,0.1-0.3,0-0.3-0.2C53.9,63.4,54.1,63.4,54.1,63.6z"/>
	<path class="st2" d="M53.8,63.5c-0.1,0-0.3,0-0.2-0.2C53.7,63.3,53.8,63.3,53.8,63.5z"/>
	<path class="st2" d="M39.9,67.3c0,0.3-0.1,0.4-0.4,0.4c-0.3,0-0.5-0.2-0.6-0.5c0-0.2,0.1-0.4,0.3-0.4C39.6,66.8,39.8,67,39.9,67.3z
		"/>
	<path class="st2" d="M39.3,93.4c0,0.3-0.2,0.4-0.4,0.4c-0.3-0.1-0.6-0.2-0.6-0.5c0-0.3,0.2-0.4,0.4-0.4
		C39.1,93,39.3,93.1,39.3,93.4z"/>
	<path class="st2" d="M33.7,102.7c0,0.3-0.2,0.4-0.4,0.4c-0.3,0-0.5-0.1-0.6-0.5c-0.1-0.2,0.1-0.4,0.3-0.4
		C33.3,102.2,33.5,102.4,33.7,102.7z"/>
	<path class="st2" d="M33.7,76.1c0.3,0,0.5,0.2,0.6,0.5c0,0.3-0.2,0.4-0.4,0.4c-0.3-0.1-0.5-0.2-0.5-0.5
		C33.2,76.2,33.4,76.1,33.7,76.1z"/>
	<path class="st2" d="M53.9,64.1c0,0.2-0.1,0.4-0.4,0.4c-0.3,0-0.5-0.2-0.6-0.5c-0.1-0.2,0.1-0.4,0.3-0.4
		C53.5,63.6,53.7,63.8,53.9,64.1z"/>
	<path class="st2" d="M35,100.6c-0.1,0-0.2,0-0.4-0.1c-0.3-0.1-0.6-0.3-0.4-0.6c0.1-0.2,0.3-0.2,0.5-0.2c0.3,0.1,0.6,0.3,0.4,0.7
		C35.1,100.5,35.1,100.6,35,100.6C35,100.6,35,100.6,35,100.6z"/>
	<path class="st2" d="M34.3,100.8c-0.1,0-0.2,0-0.2-0.2C34.2,100.6,34.4,100.6,34.3,100.8z"/>
	<path class="st2" d="M35.6,74.5c-0.1,0-0.2,0-0.4-0.1c-0.3-0.1-0.6-0.3-0.4-0.6c0.1-0.2,0.3-0.2,0.5-0.2c0.3,0.1,0.6,0.3,0.4,0.7
		C35.7,74.4,35.7,74.4,35.6,74.5C35.6,74.5,35.6,74.5,35.6,74.5z"/>
	<path class="st2" d="M34.9,74.6c-0.1,0-0.2,0-0.2-0.2C34.9,74.5,35,74.5,34.9,74.6z"/>
	<path class="st2" d="M49.3,71.1c0.1,0.2,0.1,0.4,0.1,0.6c0,0-0.1,0-0.1,0c-0.3,0.1-0.6,0-0.7-0.3c-0.1-0.2,0-0.3,0.1-0.4
		C48.8,70.8,49,71,49.3,71.1z"/>
</g>
</svg>
